<mxfile host="app.diagrams.net" agent="Mozilla/5.0 (Windows NT 10.0; Win64; x64; rv:136.0) Gecko/20100101 Firefox/136.0" version="26.1.0">
  <diagram name="Page-1" id="Dswjc4qk_41TJChtXNMn">
    <mxGraphModel dx="578" dy="-202" grid="1" gridSize="10" guides="1" tooltips="1" connect="1" arrows="1" fold="1" page="1" pageScale="1" pageWidth="595" pageHeight="842" background="none" math="1" shadow="0">
      <root>
        <mxCell id="0" />
        <mxCell id="1" parent="0" />
        <mxCell id="7ReIxb1S-zB782AHkdoJ-274" value="" style="rounded=0;whiteSpace=wrap;html=1;" vertex="1" parent="1">
          <mxGeometry x="893.88" y="1060" width="138.5" height="290" as="geometry" />
        </mxCell>
        <mxCell id="7ReIxb1S-zB782AHkdoJ-273" value="" style="rounded=0;whiteSpace=wrap;html=1;" vertex="1" parent="1">
          <mxGeometry x="890.88" y="1063.46" width="138.5" height="290" as="geometry" />
        </mxCell>
        <mxCell id="7ReIxb1S-zB782AHkdoJ-272" value="" style="rounded=0;whiteSpace=wrap;html=1;" vertex="1" parent="1">
          <mxGeometry x="887.5" y="1066.46" width="138.5" height="290" as="geometry" />
        </mxCell>
        <mxCell id="7ReIxb1S-zB782AHkdoJ-271" value="" style="rounded=0;whiteSpace=wrap;html=1;" vertex="1" parent="1">
          <mxGeometry x="884" y="1069.46" width="138.5" height="290" as="geometry" />
        </mxCell>
        <mxCell id="7ReIxb1S-zB782AHkdoJ-270" value="" style="rounded=0;whiteSpace=wrap;html=1;" vertex="1" parent="1">
          <mxGeometry x="881" y="1072.46" width="138.5" height="290" as="geometry" />
        </mxCell>
        <mxCell id="7ReIxb1S-zB782AHkdoJ-269" value="" style="rounded=0;whiteSpace=wrap;html=1;" vertex="1" parent="1">
          <mxGeometry x="877.5" y="1075.46" width="138.5" height="290" as="geometry" />
        </mxCell>
        <mxCell id="7ReIxb1S-zB782AHkdoJ-268" value="" style="rounded=0;whiteSpace=wrap;html=1;" vertex="1" parent="1">
          <mxGeometry x="874.5" y="1078.46" width="138.5" height="290" as="geometry" />
        </mxCell>
        <mxCell id="7ReIxb1S-zB782AHkdoJ-207" value="" style="rounded=0;whiteSpace=wrap;html=1;" vertex="1" parent="1">
          <mxGeometry x="668.9" y="1061.46" width="99.71" height="290" as="geometry" />
        </mxCell>
        <mxCell id="7ReIxb1S-zB782AHkdoJ-206" value="" style="rounded=0;whiteSpace=wrap;html=1;" vertex="1" parent="1">
          <mxGeometry x="665.9" y="1064.46" width="99.71" height="290" as="geometry" />
        </mxCell>
        <mxCell id="7ReIxb1S-zB782AHkdoJ-205" value="" style="rounded=0;whiteSpace=wrap;html=1;" vertex="1" parent="1">
          <mxGeometry x="662.9" y="1067.46" width="99.71" height="290" as="geometry" />
        </mxCell>
        <mxCell id="7ReIxb1S-zB782AHkdoJ-203" value="" style="rounded=0;whiteSpace=wrap;html=1;" vertex="1" parent="1">
          <mxGeometry x="659.9" y="1070.46" width="99.71" height="290" as="geometry" />
        </mxCell>
        <mxCell id="7ReIxb1S-zB782AHkdoJ-204" value="" style="rounded=0;whiteSpace=wrap;html=1;" vertex="1" parent="1">
          <mxGeometry x="656.9" y="1073.46" width="99.71" height="290" as="geometry" />
        </mxCell>
        <mxCell id="7ReIxb1S-zB782AHkdoJ-202" value="" style="rounded=0;whiteSpace=wrap;html=1;" vertex="1" parent="1">
          <mxGeometry x="653.9" y="1076.46" width="99.71" height="290" as="geometry" />
        </mxCell>
        <mxCell id="7ReIxb1S-zB782AHkdoJ-201" value="" style="rounded=0;whiteSpace=wrap;html=1;" vertex="1" parent="1">
          <mxGeometry x="650.48" y="1079.46" width="99.71" height="290" as="geometry" />
        </mxCell>
        <mxCell id="7ReIxb1S-zB782AHkdoJ-179" value="" style="rounded=0;whiteSpace=wrap;html=1;" vertex="1" parent="1">
          <mxGeometry x="647.34" y="1082.46" width="99.71" height="290" as="geometry" />
        </mxCell>
        <mxCell id="7ReIxb1S-zB782AHkdoJ-169" value="" style="rounded=1;whiteSpace=wrap;html=1;" vertex="1" parent="1">
          <mxGeometry x="656.48" y="1262.46" width="81.42" height="20" as="geometry" />
        </mxCell>
        <mxCell id="7ReIxb1S-zB782AHkdoJ-171" value="" style="rounded=1;whiteSpace=wrap;html=1;" vertex="1" parent="1">
          <mxGeometry x="656.48" y="1242.46" width="81.42" height="20" as="geometry" />
        </mxCell>
        <mxCell id="7ReIxb1S-zB782AHkdoJ-172" value="" style="rounded=1;whiteSpace=wrap;html=1;" vertex="1" parent="1">
          <mxGeometry x="656.48" y="1222.46" width="81.42" height="20" as="geometry" />
        </mxCell>
        <mxCell id="7ReIxb1S-zB782AHkdoJ-173" value="" style="rounded=1;whiteSpace=wrap;html=1;" vertex="1" parent="1">
          <mxGeometry x="656.48" y="1202.46" width="81.42" height="20" as="geometry" />
        </mxCell>
        <mxCell id="7ReIxb1S-zB782AHkdoJ-174" value="" style="rounded=1;whiteSpace=wrap;html=1;" vertex="1" parent="1">
          <mxGeometry x="656.48" y="1182.46" width="81.42" height="20" as="geometry" />
        </mxCell>
        <mxCell id="7ReIxb1S-zB782AHkdoJ-175" value="" style="rounded=1;whiteSpace=wrap;html=1;" vertex="1" parent="1">
          <mxGeometry x="656.48" y="1162.46" width="81.42" height="20" as="geometry" />
        </mxCell>
        <mxCell id="7ReIxb1S-zB782AHkdoJ-176" value="" style="rounded=1;whiteSpace=wrap;html=1;" vertex="1" parent="1">
          <mxGeometry x="656.48" y="1142.46" width="81.42" height="20" as="geometry" />
        </mxCell>
        <mxCell id="7ReIxb1S-zB782AHkdoJ-177" value="" style="rounded=1;whiteSpace=wrap;html=1;" vertex="1" parent="1">
          <mxGeometry x="656.48" y="1122.46" width="81.42" height="20" as="geometry" />
        </mxCell>
        <mxCell id="7ReIxb1S-zB782AHkdoJ-178" value="" style="rounded=1;whiteSpace=wrap;html=1;" vertex="1" parent="1">
          <mxGeometry x="656.48" y="1102.46" width="81.42" height="20" as="geometry" />
        </mxCell>
        <mxCell id="7ReIxb1S-zB782AHkdoJ-180" value="" style="endArrow=none;dashed=1;html=1;dashPattern=1 3;strokeWidth=2;rounded=0;" edge="1" parent="1">
          <mxGeometry width="50" height="50" relative="1" as="geometry">
            <mxPoint x="697.05" y="1287.54" as="sourcePoint" />
            <mxPoint x="697.05" y="1307.54" as="targetPoint" />
          </mxGeometry>
        </mxCell>
        <mxCell id="7ReIxb1S-zB782AHkdoJ-181" value="" style="rounded=1;whiteSpace=wrap;html=1;" vertex="1" parent="1">
          <mxGeometry x="656.48" y="1312.46" width="81.42" height="20" as="geometry" />
        </mxCell>
        <mxCell id="7ReIxb1S-zB782AHkdoJ-182" value="&lt;font style=&quot;font-size: 10px;&quot;&gt;$$\text{en}$$&lt;/font&gt;" style="text;html=1;align=center;verticalAlign=middle;whiteSpace=wrap;rounded=0;" vertex="1" parent="1">
          <mxGeometry x="658.32" y="1088.69" width="10.52" height="7.54" as="geometry" />
        </mxCell>
        <mxCell id="7ReIxb1S-zB782AHkdoJ-183" value="&lt;font style=&quot;font-size: 10px;&quot;&gt;$$\text{cs}$$&lt;/font&gt;" style="text;html=1;align=center;verticalAlign=middle;whiteSpace=wrap;rounded=0;" vertex="1" parent="1">
          <mxGeometry x="726.5" y="1088.69" width="9.1" height="7.54" as="geometry" />
        </mxCell>
        <mxCell id="7ReIxb1S-zB782AHkdoJ-209" value="" style="rounded=0;whiteSpace=wrap;html=1;" vertex="1" parent="1">
          <mxGeometry x="871.5" y="1081.46" width="138.5" height="290" as="geometry" />
        </mxCell>
        <mxCell id="7ReIxb1S-zB782AHkdoJ-213" value="" style="ellipse;whiteSpace=wrap;html=1;aspect=fixed;fillColor=#F0F0F0;" vertex="1" parent="1">
          <mxGeometry x="896.8846153846154" y="1113.6907692307693" width="23.076923076923077" height="23.076923076923077" as="geometry" />
        </mxCell>
        <mxCell id="7ReIxb1S-zB782AHkdoJ-214" value="" style="endArrow=blockThin;html=1;rounded=0;exitX=1;exitY=0.5;exitDx=0;exitDy=0;entryX=0;entryY=0;entryDx=0;entryDy=0;endFill=1;" edge="1" parent="1" target="7ReIxb1S-zB782AHkdoJ-213">
          <mxGeometry width="50" height="50" relative="1" as="geometry">
            <mxPoint x="881.5" y="1104.46" as="sourcePoint" />
            <mxPoint x="958.4230769230769" y="1076.7676923076924" as="targetPoint" />
            <Array as="points">
              <mxPoint x="896.8846153846154" y="1104.46" />
            </Array>
          </mxGeometry>
        </mxCell>
        <mxCell id="7ReIxb1S-zB782AHkdoJ-215" value="" style="endArrow=blockThin;html=1;rounded=0;entryX=0;entryY=1;entryDx=0;entryDy=0;exitX=1;exitY=0.5;exitDx=0;exitDy=0;endFill=1;" edge="1" parent="1" target="7ReIxb1S-zB782AHkdoJ-213">
          <mxGeometry width="50" height="50" relative="1" as="geometry">
            <mxPoint x="881.5" y="1150.6138461538462" as="sourcePoint" />
            <mxPoint x="912.2692307692307" y="1159.8446153846155" as="targetPoint" />
            <Array as="points">
              <mxPoint x="896.8846153846154" y="1150.6138461538462" />
            </Array>
          </mxGeometry>
        </mxCell>
        <mxCell id="7ReIxb1S-zB782AHkdoJ-216" value="&lt;font style=&quot;font-size: 14px;&quot;&gt;$$\geq$$&lt;/font&gt;" style="text;html=1;align=center;verticalAlign=middle;whiteSpace=wrap;rounded=0;" vertex="1" parent="1">
          <mxGeometry x="902.6538461538462" y="1118.6138461538462" width="11.538461538461538" height="13.846153846153847" as="geometry" />
        </mxCell>
        <mxCell id="7ReIxb1S-zB782AHkdoJ-217" style="edgeStyle=orthogonalEdgeStyle;rounded=0;orthogonalLoop=1;jettySize=auto;html=1;exitX=1;exitY=0.5;exitDx=0;exitDy=0;entryX=0;entryY=0.5;entryDx=0;entryDy=0;endArrow=blockThin;endFill=1;curved=0;" edge="1" parent="1" target="7ReIxb1S-zB782AHkdoJ-223">
          <mxGeometry relative="1" as="geometry">
            <mxPoint x="919.9615384615385" y="1127.5369230769231" as="sourcePoint" />
          </mxGeometry>
        </mxCell>
        <mxCell id="7ReIxb1S-zB782AHkdoJ-218" value="" style="ellipse;whiteSpace=wrap;html=1;aspect=fixed;fillColor=#F0F0F0;" vertex="1" parent="1">
          <mxGeometry x="896.8846153846154" y="1178.3061538461538" width="23.076923076923077" height="23.076923076923077" as="geometry" />
        </mxCell>
        <mxCell id="7ReIxb1S-zB782AHkdoJ-219" value="" style="endArrow=blockThin;html=1;rounded=0;exitX=1;exitY=0.5;exitDx=0;exitDy=0;entryX=0;entryY=0;entryDx=0;entryDy=0;endFill=1;" edge="1" parent="1" target="7ReIxb1S-zB782AHkdoJ-218">
          <mxGeometry width="50" height="50" relative="1" as="geometry">
            <mxPoint x="881.5" y="1169.0753846153846" as="sourcePoint" />
            <mxPoint x="958.4230769230769" y="1141.383076923077" as="targetPoint" />
            <Array as="points">
              <mxPoint x="896.8846153846154" y="1169.0753846153846" />
            </Array>
          </mxGeometry>
        </mxCell>
        <mxCell id="7ReIxb1S-zB782AHkdoJ-220" value="" style="endArrow=blockThin;html=1;rounded=0;entryX=0;entryY=1;entryDx=0;entryDy=0;exitX=1;exitY=0.5;exitDx=0;exitDy=0;endFill=1;" edge="1" parent="1" target="7ReIxb1S-zB782AHkdoJ-218">
          <mxGeometry width="50" height="50" relative="1" as="geometry">
            <mxPoint x="881.5" y="1215.2292307692308" as="sourcePoint" />
            <mxPoint x="912.2692307692307" y="1224.46" as="targetPoint" />
            <Array as="points">
              <mxPoint x="896.8846153846154" y="1215.2292307692308" />
            </Array>
          </mxGeometry>
        </mxCell>
        <mxCell id="7ReIxb1S-zB782AHkdoJ-221" value="&lt;font style=&quot;font-size: 14px;&quot;&gt;$$\geq$$&lt;/font&gt;" style="text;html=1;align=center;verticalAlign=middle;whiteSpace=wrap;rounded=0;" vertex="1" parent="1">
          <mxGeometry x="902.6538461538462" y="1183.2292307692308" width="11.538461538461538" height="13.846153846153847" as="geometry" />
        </mxCell>
        <mxCell id="7ReIxb1S-zB782AHkdoJ-222" style="edgeStyle=orthogonalEdgeStyle;rounded=0;orthogonalLoop=1;jettySize=auto;html=1;exitX=1;exitY=0.5;exitDx=0;exitDy=0;entryX=0;entryY=0.5;entryDx=0;entryDy=0;endArrow=blockThin;endFill=1;" edge="1" parent="1" target="7ReIxb1S-zB782AHkdoJ-225">
          <mxGeometry relative="1" as="geometry">
            <mxPoint x="919.9615384615385" y="1192.1523076923077" as="sourcePoint" />
          </mxGeometry>
        </mxCell>
        <mxCell id="7ReIxb1S-zB782AHkdoJ-223" value="" style="rounded=0;whiteSpace=wrap;html=1;" vertex="1" parent="1">
          <mxGeometry x="931.5" y="1109.0753846153846" width="15.384615384615383" height="36.92307692307692" as="geometry" />
        </mxCell>
        <mxCell id="7ReIxb1S-zB782AHkdoJ-224" value="" style="triangle;whiteSpace=wrap;html=1;rotation=-90;" vertex="1" parent="1">
          <mxGeometry x="935.3461538461538" y="1136.7676923076924" width="7.692307692307692" height="9.23076923076923" as="geometry" />
        </mxCell>
        <mxCell id="7ReIxb1S-zB782AHkdoJ-225" value="" style="rounded=0;whiteSpace=wrap;html=1;" vertex="1" parent="1">
          <mxGeometry x="931.5" y="1173.6907692307693" width="15.384615384615383" height="36.92307692307692" as="geometry" />
        </mxCell>
        <mxCell id="7ReIxb1S-zB782AHkdoJ-226" value="" style="triangle;whiteSpace=wrap;html=1;rotation=-90;" vertex="1" parent="1">
          <mxGeometry x="935.3461538461538" y="1201.383076923077" width="7.692307692307692" height="9.23076923076923" as="geometry" />
        </mxCell>
        <mxCell id="7ReIxb1S-zB782AHkdoJ-227" value="" style="ellipse;whiteSpace=wrap;html=1;aspect=fixed;fillColor=#F0F0F0;" vertex="1" parent="1">
          <mxGeometry x="896.8846153846154" y="1242.9215384615386" width="23.076923076923077" height="23.076923076923077" as="geometry" />
        </mxCell>
        <mxCell id="7ReIxb1S-zB782AHkdoJ-228" value="" style="endArrow=blockThin;html=1;rounded=0;exitX=1;exitY=0.5;exitDx=0;exitDy=0;entryX=0;entryY=0;entryDx=0;entryDy=0;endFill=1;" edge="1" parent="1" target="7ReIxb1S-zB782AHkdoJ-227">
          <mxGeometry width="50" height="50" relative="1" as="geometry">
            <mxPoint x="881.5" y="1233.6907692307693" as="sourcePoint" />
            <mxPoint x="958.4230769230769" y="1205.9984615384615" as="targetPoint" />
            <Array as="points">
              <mxPoint x="896.8846153846154" y="1233.6907692307693" />
            </Array>
          </mxGeometry>
        </mxCell>
        <mxCell id="7ReIxb1S-zB782AHkdoJ-229" value="" style="endArrow=blockThin;html=1;rounded=0;entryX=0;entryY=1;entryDx=0;entryDy=0;exitX=1;exitY=0.5;exitDx=0;exitDy=0;endFill=1;" edge="1" parent="1" target="7ReIxb1S-zB782AHkdoJ-227">
          <mxGeometry width="50" height="50" relative="1" as="geometry">
            <mxPoint x="881.5" y="1279.8446153846155" as="sourcePoint" />
            <mxPoint x="912.2692307692307" y="1289.0753846153846" as="targetPoint" />
            <Array as="points">
              <mxPoint x="896.8846153846154" y="1279.8446153846155" />
            </Array>
          </mxGeometry>
        </mxCell>
        <mxCell id="7ReIxb1S-zB782AHkdoJ-230" value="&lt;font style=&quot;font-size: 14px;&quot;&gt;$$\geq$$&lt;/font&gt;" style="text;html=1;align=center;verticalAlign=middle;whiteSpace=wrap;rounded=0;" vertex="1" parent="1">
          <mxGeometry x="902.6538461538462" y="1247.8446153846155" width="11.538461538461538" height="13.846153846153847" as="geometry" />
        </mxCell>
        <mxCell id="7ReIxb1S-zB782AHkdoJ-231" style="edgeStyle=orthogonalEdgeStyle;rounded=0;orthogonalLoop=1;jettySize=auto;html=1;exitX=1;exitY=0.5;exitDx=0;exitDy=0;entryX=0;entryY=0.5;entryDx=0;entryDy=0;endArrow=blockThin;endFill=1;curved=0;" edge="1" parent="1" target="7ReIxb1S-zB782AHkdoJ-237">
          <mxGeometry relative="1" as="geometry">
            <mxPoint x="919.9615384615385" y="1256.7676923076924" as="sourcePoint" />
          </mxGeometry>
        </mxCell>
        <mxCell id="7ReIxb1S-zB782AHkdoJ-232" value="" style="ellipse;whiteSpace=wrap;html=1;aspect=fixed;fillColor=#F0F0F0;" vertex="1" parent="1">
          <mxGeometry x="896.8846153846154" y="1307.5369230769231" width="23.076923076923077" height="23.076923076923077" as="geometry" />
        </mxCell>
        <mxCell id="7ReIxb1S-zB782AHkdoJ-233" value="" style="endArrow=blockThin;html=1;rounded=0;exitX=1;exitY=0.5;exitDx=0;exitDy=0;entryX=0;entryY=0;entryDx=0;entryDy=0;endFill=1;" edge="1" parent="1" target="7ReIxb1S-zB782AHkdoJ-232">
          <mxGeometry width="50" height="50" relative="1" as="geometry">
            <mxPoint x="881.5" y="1298.3061538461538" as="sourcePoint" />
            <mxPoint x="958.4230769230769" y="1270.6138461538462" as="targetPoint" />
            <Array as="points">
              <mxPoint x="896.8846153846154" y="1298.3061538461538" />
            </Array>
          </mxGeometry>
        </mxCell>
        <mxCell id="7ReIxb1S-zB782AHkdoJ-234" value="" style="endArrow=blockThin;html=1;rounded=0;entryX=0;entryY=1;entryDx=0;entryDy=0;exitX=1;exitY=0.5;exitDx=0;exitDy=0;endFill=1;" edge="1" parent="1" target="7ReIxb1S-zB782AHkdoJ-232">
          <mxGeometry width="50" height="50" relative="1" as="geometry">
            <mxPoint x="881.5" y="1344.46" as="sourcePoint" />
            <mxPoint x="912.2692307692307" y="1353.6907692307693" as="targetPoint" />
            <Array as="points">
              <mxPoint x="896.8846153846154" y="1344.46" />
            </Array>
          </mxGeometry>
        </mxCell>
        <mxCell id="7ReIxb1S-zB782AHkdoJ-235" value="&lt;font style=&quot;font-size: 14px;&quot;&gt;$$\geq$$&lt;/font&gt;" style="text;html=1;align=center;verticalAlign=middle;whiteSpace=wrap;rounded=0;" vertex="1" parent="1">
          <mxGeometry x="902.6538461538462" y="1312.46" width="11.538461538461538" height="13.846153846153847" as="geometry" />
        </mxCell>
        <mxCell id="7ReIxb1S-zB782AHkdoJ-236" style="edgeStyle=orthogonalEdgeStyle;rounded=0;orthogonalLoop=1;jettySize=auto;html=1;exitX=1;exitY=0.5;exitDx=0;exitDy=0;entryX=0;entryY=0.5;entryDx=0;entryDy=0;endArrow=blockThin;endFill=1;" edge="1" parent="1" target="7ReIxb1S-zB782AHkdoJ-239">
          <mxGeometry relative="1" as="geometry">
            <mxPoint x="919.9615384615385" y="1321.383076923077" as="sourcePoint" />
          </mxGeometry>
        </mxCell>
        <mxCell id="7ReIxb1S-zB782AHkdoJ-237" value="" style="rounded=0;whiteSpace=wrap;html=1;" vertex="1" parent="1">
          <mxGeometry x="931.5" y="1238.3061538461538" width="15.384615384615383" height="36.92307692307692" as="geometry" />
        </mxCell>
        <mxCell id="7ReIxb1S-zB782AHkdoJ-238" value="" style="triangle;whiteSpace=wrap;html=1;rotation=-90;" vertex="1" parent="1">
          <mxGeometry x="935.3461538461538" y="1265.9984615384615" width="7.692307692307692" height="9.23076923076923" as="geometry" />
        </mxCell>
        <mxCell id="7ReIxb1S-zB782AHkdoJ-239" value="" style="rounded=0;whiteSpace=wrap;html=1;" vertex="1" parent="1">
          <mxGeometry x="931.5" y="1302.9215384615386" width="15.384615384615383" height="36.92307692307692" as="geometry" />
        </mxCell>
        <mxCell id="7ReIxb1S-zB782AHkdoJ-240" value="" style="triangle;whiteSpace=wrap;html=1;rotation=-90;" vertex="1" parent="1">
          <mxGeometry x="935.3461538461538" y="1330.6138461538462" width="7.692307692307692" height="9.23076923076923" as="geometry" />
        </mxCell>
        <mxCell id="7ReIxb1S-zB782AHkdoJ-241" value="" style="ellipse;whiteSpace=wrap;html=1;aspect=fixed;fillColor=#F0F0F0;" vertex="1" parent="1">
          <mxGeometry x="958.4230769230769" y="1145.9984615384615" width="23.076923076923077" height="23.076923076923077" as="geometry" />
        </mxCell>
        <mxCell id="7ReIxb1S-zB782AHkdoJ-242" value="&lt;font style=&quot;font-size: 14px;&quot;&gt;$$\geq$$&lt;/font&gt;" style="text;html=1;align=center;verticalAlign=middle;whiteSpace=wrap;rounded=0;" vertex="1" parent="1">
          <mxGeometry x="964.1923076923076" y="1150.9215384615386" width="11.538461538461538" height="13.846153846153847" as="geometry" />
        </mxCell>
        <mxCell id="7ReIxb1S-zB782AHkdoJ-243" value="" style="ellipse;whiteSpace=wrap;html=1;aspect=fixed;fillColor=#F0F0F0;" vertex="1" parent="1">
          <mxGeometry x="958.4230769230769" y="1275.2292307692308" width="23.076923076923077" height="23.076923076923077" as="geometry" />
        </mxCell>
        <mxCell id="7ReIxb1S-zB782AHkdoJ-244" value="&lt;font style=&quot;font-size: 14px;&quot;&gt;$$\geq$$&lt;/font&gt;" style="text;html=1;align=center;verticalAlign=middle;whiteSpace=wrap;rounded=0;" vertex="1" parent="1">
          <mxGeometry x="964.1923076923076" y="1280.1523076923077" width="11.538461538461538" height="13.846153846153847" as="geometry" />
        </mxCell>
        <mxCell id="7ReIxb1S-zB782AHkdoJ-245" value="" style="endArrow=blockThin;html=1;rounded=0;exitX=1;exitY=0.5;exitDx=0;exitDy=0;entryX=0;entryY=0;entryDx=0;entryDy=0;endFill=1;" edge="1" parent="1" source="7ReIxb1S-zB782AHkdoJ-223" target="7ReIxb1S-zB782AHkdoJ-241">
          <mxGeometry width="50" height="50" relative="1" as="geometry">
            <mxPoint x="962.2692307692307" y="1159.8446153846155" as="sourcePoint" />
            <mxPoint x="1000.7307692307693" y="1113.6907692307693" as="targetPoint" />
            <Array as="points">
              <mxPoint x="954.5769230769231" y="1127.5369230769231" />
            </Array>
          </mxGeometry>
        </mxCell>
        <mxCell id="7ReIxb1S-zB782AHkdoJ-246" value="" style="endArrow=blockThin;html=1;rounded=0;exitX=1;exitY=0.5;exitDx=0;exitDy=0;entryX=0;entryY=1;entryDx=0;entryDy=0;endFill=1;" edge="1" parent="1" source="7ReIxb1S-zB782AHkdoJ-225" target="7ReIxb1S-zB782AHkdoJ-241">
          <mxGeometry width="50" height="50" relative="1" as="geometry">
            <mxPoint x="985.3461538461538" y="1233.6907692307693" as="sourcePoint" />
            <mxPoint x="1023.8076923076924" y="1187.5369230769231" as="targetPoint" />
            <Array as="points">
              <mxPoint x="954.5769230769231" y="1192.1523076923077" />
            </Array>
          </mxGeometry>
        </mxCell>
        <mxCell id="7ReIxb1S-zB782AHkdoJ-247" value="" style="endArrow=blockThin;html=1;rounded=0;exitX=1;exitY=0.5;exitDx=0;exitDy=0;entryX=0;entryY=0;entryDx=0;entryDy=0;endFill=1;" edge="1" parent="1" source="7ReIxb1S-zB782AHkdoJ-237" target="7ReIxb1S-zB782AHkdoJ-243">
          <mxGeometry width="50" height="50" relative="1" as="geometry">
            <mxPoint x="1008.4230769230769" y="1289.0753846153846" as="sourcePoint" />
            <mxPoint x="1046.8846153846155" y="1242.9215384615386" as="targetPoint" />
            <Array as="points">
              <mxPoint x="954.5769230769231" y="1256.7676923076924" />
            </Array>
          </mxGeometry>
        </mxCell>
        <mxCell id="7ReIxb1S-zB782AHkdoJ-248" value="" style="endArrow=blockThin;html=1;rounded=0;exitX=1;exitY=0.5;exitDx=0;exitDy=0;entryX=0;entryY=1;entryDx=0;entryDy=0;endFill=1;" edge="1" parent="1" source="7ReIxb1S-zB782AHkdoJ-239" target="7ReIxb1S-zB782AHkdoJ-243">
          <mxGeometry width="50" height="50" relative="1" as="geometry">
            <mxPoint x="985.3461538461538" y="1362.9215384615386" as="sourcePoint" />
            <mxPoint x="1023.8076923076924" y="1316.7676923076924" as="targetPoint" />
            <Array as="points">
              <mxPoint x="954.5769230769231" y="1321.383076923077" />
            </Array>
          </mxGeometry>
        </mxCell>
        <mxCell id="7ReIxb1S-zB782AHkdoJ-211" value="" style="endArrow=none;dashed=1;html=1;dashPattern=1 3;strokeWidth=2;rounded=0;" edge="1" parent="1">
          <mxGeometry width="50" height="50" relative="1" as="geometry">
            <mxPoint x="985.21" y="1159.5800000000002" as="sourcePoint" />
            <mxPoint x="1005.21" y="1159.55" as="targetPoint" />
          </mxGeometry>
        </mxCell>
        <mxCell id="7ReIxb1S-zB782AHkdoJ-259" value="" style="endArrow=none;dashed=1;html=1;dashPattern=1 3;strokeWidth=2;rounded=0;" edge="1" parent="1">
          <mxGeometry width="50" height="50" relative="1" as="geometry">
            <mxPoint x="985.21" y="1286.5000000000002" as="sourcePoint" />
            <mxPoint x="1005.21" y="1286.47" as="targetPoint" />
          </mxGeometry>
        </mxCell>
        <mxCell id="7ReIxb1S-zB782AHkdoJ-275" value="&lt;font style=&quot;font-size: 10px;&quot;&gt;$$\text{start}$$&lt;/font&gt;" style="text;html=1;align=center;verticalAlign=middle;whiteSpace=wrap;rounded=0;" vertex="1" parent="1">
          <mxGeometry x="881" y="1082.46" width="30" height="20" as="geometry" />
        </mxCell>
        <mxCell id="7ReIxb1S-zB782AHkdoJ-276" value="" style="endArrow=none;dashed=1;html=1;dashPattern=1 3;strokeWidth=2;rounded=0;" edge="1" parent="1">
          <mxGeometry width="50" height="50" relative="1" as="geometry">
            <mxPoint x="919.96" y="1234.46" as="sourcePoint" />
            <mxPoint x="919.96" y="1214.46" as="targetPoint" />
          </mxGeometry>
        </mxCell>
        <mxCell id="7ReIxb1S-zB782AHkdoJ-299" style="edgeStyle=orthogonalEdgeStyle;rounded=0;orthogonalLoop=1;jettySize=auto;html=1;exitX=0.5;exitY=1;exitDx=0;exitDy=0;entryX=0;entryY=0.5;entryDx=0;entryDy=0;endArrow=block;endFill=1;strokeWidth=2;endSize=1;" edge="1" parent="1" source="7ReIxb1S-zB782AHkdoJ-277" target="7ReIxb1S-zB782AHkdoJ-297">
          <mxGeometry relative="1" as="geometry" />
        </mxCell>
        <mxCell id="7ReIxb1S-zB782AHkdoJ-277" value="" style="shape=trapezoid;perimeter=trapezoidPerimeter;whiteSpace=wrap;html=1;fixedSize=1;rotation=-90;fillColor=#FFFFFF;strokeWidth=1;" vertex="1" parent="1">
          <mxGeometry x="887.86" y="1204.22" width="353.12" height="28.44" as="geometry" />
        </mxCell>
        <mxCell id="7ReIxb1S-zB782AHkdoJ-279" value="" style="endArrow=block;html=1;rounded=0;endFill=1;strokeWidth=2;exitX=0.997;exitY=0.072;exitDx=0;exitDy=0;exitPerimeter=0;entryX=0.44;entryY=-0.018;entryDx=0;entryDy=0;entryPerimeter=0;endSize=1;" edge="1" parent="1">
          <mxGeometry width="50" height="50" relative="1" as="geometry">
            <mxPoint x="1010.0044999999999" y="1250.6499999999996" as="sourcePoint" />
            <mxPoint x="1049.68808" y="1250.6272000000004" as="targetPoint" />
          </mxGeometry>
        </mxCell>
        <mxCell id="7ReIxb1S-zB782AHkdoJ-282" value="" style="endArrow=block;html=1;rounded=0;endFill=1;strokeWidth=2;exitX=0.997;exitY=0.072;exitDx=0;exitDy=0;exitPerimeter=0;entryX=0.471;entryY=-0.019;entryDx=0;entryDy=0;entryPerimeter=0;endSize=1;" edge="1" parent="1">
          <mxGeometry width="50" height="50" relative="1" as="geometry">
            <mxPoint x="1013.0044999999999" y="1240.6299999999997" as="sourcePoint" />
            <mxPoint x="1049.65964" y="1240.6804800000004" as="targetPoint" />
          </mxGeometry>
        </mxCell>
        <mxCell id="7ReIxb1S-zB782AHkdoJ-283" value="" style="endArrow=block;html=1;rounded=0;endFill=1;strokeWidth=2;exitX=1.001;exitY=0.483;exitDx=0;exitDy=0;exitPerimeter=0;entryX=0.471;entryY=-0.019;entryDx=0;entryDy=0;entryPerimeter=0;endSize=1;" edge="1" parent="1">
          <mxGeometry width="50" height="50" relative="1" as="geometry">
            <mxPoint x="1016.1385" y="1230.5300000000002" as="sourcePoint" />
            <mxPoint x="1049.65964" y="1230.4504800000004" as="targetPoint" />
          </mxGeometry>
        </mxCell>
        <mxCell id="7ReIxb1S-zB782AHkdoJ-284" value="" style="endArrow=block;html=1;rounded=0;endFill=1;strokeWidth=2;exitX=1.001;exitY=0.447;exitDx=0;exitDy=0;exitPerimeter=0;entryX=0.471;entryY=-0.019;entryDx=0;entryDy=0;entryPerimeter=0;endSize=1;" edge="1" parent="1">
          <mxGeometry width="50" height="50" relative="1" as="geometry">
            <mxPoint x="1019.6385" y="1220.0900000000001" as="sourcePoint" />
            <mxPoint x="1049.51964" y="1220.2204800000004" as="targetPoint" />
          </mxGeometry>
        </mxCell>
        <mxCell id="7ReIxb1S-zB782AHkdoJ-285" value="" style="endArrow=block;html=1;rounded=0;endFill=1;strokeWidth=2;exitX=1.001;exitY=0.447;exitDx=0;exitDy=0;exitPerimeter=0;entryX=0.578;entryY=-0.018;entryDx=0;entryDy=0;entryPerimeter=0;endSize=1;" edge="1" parent="1">
          <mxGeometry width="50" height="50" relative="1" as="geometry">
            <mxPoint x="1022.5" y="1209.73" as="sourcePoint" />
            <mxPoint x="1049.68808" y="1209.8966400000004" as="targetPoint" />
          </mxGeometry>
        </mxCell>
        <mxCell id="7ReIxb1S-zB782AHkdoJ-286" value="" style="endArrow=block;html=1;rounded=0;endFill=1;strokeWidth=2;exitX=1.002;exitY=0.386;exitDx=0;exitDy=0;exitPerimeter=0;entryX=0.61;entryY=-0.016;entryDx=0;entryDy=0;entryPerimeter=0;endSize=1;" edge="1" parent="1">
          <mxGeometry width="50" height="50" relative="1" as="geometry">
            <mxPoint x="1026.277" y="1200.4" as="sourcePoint" />
            <mxPoint x="1049.74496" y="1200.5968000000003" as="targetPoint" />
          </mxGeometry>
        </mxCell>
        <mxCell id="7ReIxb1S-zB782AHkdoJ-287" value="" style="endArrow=block;html=1;rounded=0;endFill=1;strokeWidth=2;exitX=1.002;exitY=0.35;exitDx=0;exitDy=0;exitPerimeter=0;entryX=0.648;entryY=-0.017;entryDx=0;entryDy=0;entryPerimeter=0;endSize=1;" edge="1" parent="1">
          <mxGeometry width="50" height="50" relative="1" as="geometry">
            <mxPoint x="1029.6570000000002" y="1190.9599999999996" as="sourcePoint" />
            <mxPoint x="1049.71652" y="1191.1782400000002" as="targetPoint" />
          </mxGeometry>
        </mxCell>
        <mxCell id="7ReIxb1S-zB782AHkdoJ-288" value="" style="endArrow=block;html=1;rounded=0;endFill=1;strokeWidth=2;exitX=1.002;exitY=0.319;exitDx=0;exitDy=0;exitPerimeter=0;entryX=0.684;entryY=-0.017;entryDx=0;entryDy=0;entryPerimeter=0;endSize=1;" edge="1" parent="1">
          <mxGeometry width="50" height="50" relative="1" as="geometry">
            <mxPoint x="1032.6570000000002" y="1181.5100000000002" as="sourcePoint" />
            <mxPoint x="1049.71652" y="1181.46592" as="targetPoint" />
          </mxGeometry>
        </mxCell>
        <mxCell id="7ReIxb1S-zB782AHkdoJ-289" value="" style="endArrow=block;html=1;rounded=0;endFill=1;strokeWidth=2;exitX=1.005;exitY=0.615;exitDx=0;exitDy=0;exitPerimeter=0;entryX=0.007;entryY=0.541;entryDx=0;entryDy=0;entryPerimeter=0;startFill=0;endSize=1;" edge="1" parent="1">
          <mxGeometry width="50" height="50" relative="1" as="geometry">
            <mxPoint x="747.54855" y="1248.81" as="sourcePoint" />
            <mxPoint x="871.4694999999999" y="1249.35" as="targetPoint" />
          </mxGeometry>
        </mxCell>
        <mxCell id="7ReIxb1S-zB782AHkdoJ-290" value="" style="endArrow=block;html=1;rounded=0;endFill=1;strokeWidth=2;exitX=1.005;exitY=0.555;exitDx=0;exitDy=0;exitPerimeter=0;entryX=0;entryY=0.5;entryDx=0;entryDy=0;startFill=0;endSize=1;" edge="1" parent="1" source="7ReIxb1S-zB782AHkdoJ-201">
          <mxGeometry width="50" height="50" relative="1" as="geometry">
            <mxPoint x="813.2944999999999" y="1239.9399999999996" as="sourcePoint" />
            <mxPoint x="871.5" y="1240.46" as="targetPoint" />
          </mxGeometry>
        </mxCell>
        <mxCell id="7ReIxb1S-zB782AHkdoJ-291" value="" style="endArrow=block;html=1;rounded=0;endFill=1;strokeWidth=2;exitX=1.001;exitY=0.553;exitDx=0;exitDy=0;exitPerimeter=0;entryX=0;entryY=0.537;entryDx=0;entryDy=0;entryPerimeter=0;startFill=0;endSize=1;" edge="1" parent="1">
          <mxGeometry width="50" height="50" relative="1" as="geometry">
            <mxPoint x="753.70971" y="1229.8300000000004" as="sourcePoint" />
            <mxPoint x="871.5" y="1230.19" as="targetPoint" />
          </mxGeometry>
        </mxCell>
        <mxCell id="7ReIxb1S-zB782AHkdoJ-292" value="" style="endArrow=block;html=1;rounded=0;endFill=1;strokeWidth=2;exitX=0.975;exitY=0.531;exitDx=0;exitDy=0;exitPerimeter=0;entryX=0;entryY=0.417;entryDx=0;entryDy=0;entryPerimeter=0;startFill=0;endSize=1;" edge="1" parent="1">
          <mxGeometry width="50" height="50" relative="1" as="geometry">
            <mxPoint x="757.11725" y="1219.4500000000003" as="sourcePoint" />
            <mxPoint x="871.5" y="1220.3899999999999" as="targetPoint" />
          </mxGeometry>
        </mxCell>
        <mxCell id="7ReIxb1S-zB782AHkdoJ-293" value="" style="endArrow=block;html=1;rounded=0;endFill=1;strokeWidth=2;exitX=1.004;exitY=0.491;exitDx=0;exitDy=0;exitPerimeter=0;startFill=0;entryX=-0.001;entryY=0.454;entryDx=0;entryDy=0;entryPerimeter=0;endSize=1;" edge="1" parent="1">
          <mxGeometry width="50" height="50" relative="1" as="geometry">
            <mxPoint x="760.00884" y="1209.8500000000004" as="sourcePoint" />
            <mxPoint x="871.3615" y="1210.12" as="targetPoint" />
          </mxGeometry>
        </mxCell>
        <mxCell id="7ReIxb1S-zB782AHkdoJ-294" value="" style="endArrow=block;html=1;rounded=0;endFill=1;strokeWidth=2;exitX=0.999;exitY=0.456;exitDx=0;exitDy=0;exitPerimeter=0;entryX=-0.001;entryY=0.331;entryDx=0;entryDy=0;entryPerimeter=0;startFill=0;endSize=1;" edge="1" parent="1">
          <mxGeometry width="50" height="50" relative="1" as="geometry">
            <mxPoint x="762.61029" y="1199.3100000000002" as="sourcePoint" />
            <mxPoint x="871.4615" y="1200.0599999999997" as="targetPoint" />
          </mxGeometry>
        </mxCell>
        <mxCell id="7ReIxb1S-zB782AHkdoJ-295" value="" style="endArrow=block;html=1;rounded=0;endFill=1;strokeWidth=2;exitX=1.001;exitY=0.396;exitDx=0;exitDy=0;exitPerimeter=0;entryX=-0.001;entryY=0.288;entryDx=0;entryDy=0;entryPerimeter=0;startFill=0;startSize=6;endSize=1;" edge="1" parent="1">
          <mxGeometry width="50" height="50" relative="1" as="geometry">
            <mxPoint x="765.70971" y="1189.3000000000002" as="sourcePoint" />
            <mxPoint x="871.3615" y="1189.98" as="targetPoint" />
          </mxGeometry>
        </mxCell>
        <mxCell id="7ReIxb1S-zB782AHkdoJ-296" value="" style="endArrow=block;html=1;rounded=0;endFill=1;strokeWidth=2;exitX=1.003;exitY=0.339;exitDx=0;exitDy=0;exitPerimeter=0;entryX=0;entryY=0.242;entryDx=0;entryDy=0;entryPerimeter=0;startFill=0;endSize=1;" edge="1" parent="1">
          <mxGeometry width="50" height="50" relative="1" as="geometry">
            <mxPoint x="768.9091299999999" y="1179.7700000000004" as="sourcePoint" />
            <mxPoint x="871.5" y="1179.6399999999999" as="targetPoint" />
          </mxGeometry>
        </mxCell>
        <mxCell id="7ReIxb1S-zB782AHkdoJ-297" value="$$\text{Cmp}$$" style="rounded=0;whiteSpace=wrap;html=1;rotation=0;" vertex="1" parent="1">
          <mxGeometry x="1100" y="1119.96" width="61" height="195" as="geometry" />
        </mxCell>
        <mxCell id="7ReIxb1S-zB782AHkdoJ-301" value="" style="shape=trapezoid;perimeter=trapezoidPerimeter;whiteSpace=wrap;html=1;fixedSize=1;rotation=-180;fillColor=#FFFFFF;strokeWidth=1;" vertex="1" parent="1">
          <mxGeometry x="689.11" y="1013.56" width="88.96" height="20" as="geometry" />
        </mxCell>
        <mxCell id="7ReIxb1S-zB782AHkdoJ-302" value="&lt;font style=&quot;font-size: 10px;&quot;&gt;$$\text{RSrcMux}$$&lt;/font&gt;" style="text;html=1;align=center;verticalAlign=middle;whiteSpace=wrap;rounded=0;" vertex="1" parent="1">
          <mxGeometry x="715.83" y="1013.56" width="35.52" height="16.44" as="geometry" />
        </mxCell>
        <mxCell id="7ReIxb1S-zB782AHkdoJ-303" value="" style="shape=trapezoid;perimeter=trapezoidPerimeter;whiteSpace=wrap;html=1;fixedSize=1;rotation=-90;fillColor=#FFFFFF;strokeWidth=1;" vertex="1" parent="1">
          <mxGeometry x="434.86" y="1203.24" width="353.12" height="28.44" as="geometry" />
        </mxCell>
        <mxCell id="7ReIxb1S-zB782AHkdoJ-304" value="" style="endArrow=block;html=1;rounded=0;endFill=1;strokeWidth=2;exitX=0.622;exitY=1.006;exitDx=0;exitDy=0;exitPerimeter=0;entryX=0;entryY=0.242;entryDx=0;entryDy=0;entryPerimeter=0;startFill=0;endSize=1;" edge="1" parent="1" source="7ReIxb1S-zB782AHkdoJ-303">
          <mxGeometry width="50" height="50" relative="1" as="geometry">
            <mxPoint x="607.8094200000003" y="1174.3600000000001" as="sourcePoint" />
            <mxPoint x="647.5" y="1174.6399999999999" as="targetPoint" />
          </mxGeometry>
        </mxCell>
        <mxCell id="7ReIxb1S-zB782AHkdoJ-305" value="" style="endArrow=block;html=1;rounded=0;endFill=1;strokeWidth=2;exitX=0.622;exitY=1.006;exitDx=0;exitDy=0;exitPerimeter=0;entryX=0;entryY=0.242;entryDx=0;entryDy=0;entryPerimeter=0;startFill=0;endSize=1;" edge="1" parent="1">
          <mxGeometry width="50" height="50" relative="1" as="geometry">
            <mxPoint x="626" y="1187" as="sourcePoint" />
            <mxPoint x="647.5" y="1187.6399999999999" as="targetPoint" />
          </mxGeometry>
        </mxCell>
        <mxCell id="7ReIxb1S-zB782AHkdoJ-306" value="" style="endArrow=block;html=1;rounded=0;endFill=1;strokeWidth=2;exitX=0.622;exitY=1.006;exitDx=0;exitDy=0;exitPerimeter=0;entryX=0;entryY=0.242;entryDx=0;entryDy=0;entryPerimeter=0;startFill=0;endSize=1;" edge="1" parent="1">
          <mxGeometry width="50" height="50" relative="1" as="geometry">
            <mxPoint x="626" y="1200" as="sourcePoint" />
            <mxPoint x="647.5" y="1200.6399999999999" as="targetPoint" />
          </mxGeometry>
        </mxCell>
        <mxCell id="7ReIxb1S-zB782AHkdoJ-307" value="" style="endArrow=block;html=1;rounded=0;endFill=1;strokeWidth=2;exitX=0.622;exitY=1.006;exitDx=0;exitDy=0;exitPerimeter=0;entryX=0;entryY=0.242;entryDx=0;entryDy=0;entryPerimeter=0;startFill=0;endSize=1;" edge="1" parent="1">
          <mxGeometry width="50" height="50" relative="1" as="geometry">
            <mxPoint x="626" y="1213" as="sourcePoint" />
            <mxPoint x="647.5" y="1213.6399999999999" as="targetPoint" />
          </mxGeometry>
        </mxCell>
        <mxCell id="7ReIxb1S-zB782AHkdoJ-308" value="" style="endArrow=block;html=1;rounded=0;endFill=1;strokeWidth=2;exitX=0.622;exitY=1.006;exitDx=0;exitDy=0;exitPerimeter=0;entryX=0;entryY=0.242;entryDx=0;entryDy=0;entryPerimeter=0;startFill=0;endSize=1;" edge="1" parent="1">
          <mxGeometry width="50" height="50" relative="1" as="geometry">
            <mxPoint x="626" y="1226" as="sourcePoint" />
            <mxPoint x="647.5" y="1226.6399999999999" as="targetPoint" />
          </mxGeometry>
        </mxCell>
        <mxCell id="7ReIxb1S-zB782AHkdoJ-309" value="" style="endArrow=block;html=1;rounded=0;endFill=1;strokeWidth=2;exitX=0.622;exitY=1.006;exitDx=0;exitDy=0;exitPerimeter=0;entryX=0;entryY=0.242;entryDx=0;entryDy=0;entryPerimeter=0;startFill=0;endSize=1;" edge="1" parent="1">
          <mxGeometry width="50" height="50" relative="1" as="geometry">
            <mxPoint x="626" y="1239" as="sourcePoint" />
            <mxPoint x="647.5" y="1239.6399999999999" as="targetPoint" />
          </mxGeometry>
        </mxCell>
        <mxCell id="7ReIxb1S-zB782AHkdoJ-310" value="" style="endArrow=block;html=1;rounded=0;endFill=1;strokeWidth=2;exitX=0.622;exitY=1.006;exitDx=0;exitDy=0;exitPerimeter=0;entryX=0;entryY=0.242;entryDx=0;entryDy=0;entryPerimeter=0;startFill=0;endSize=1;" edge="1" parent="1">
          <mxGeometry width="50" height="50" relative="1" as="geometry">
            <mxPoint x="626" y="1252" as="sourcePoint" />
            <mxPoint x="647.5" y="1252.6399999999999" as="targetPoint" />
          </mxGeometry>
        </mxCell>
        <mxCell id="7ReIxb1S-zB782AHkdoJ-311" value="" style="endArrow=block;html=1;rounded=0;endFill=1;strokeWidth=2;exitX=0.622;exitY=1.006;exitDx=0;exitDy=0;exitPerimeter=0;entryX=0;entryY=0.242;entryDx=0;entryDy=0;entryPerimeter=0;startFill=0;endSize=1;" edge="1" parent="1">
          <mxGeometry width="50" height="50" relative="1" as="geometry">
            <mxPoint x="626" y="1265" as="sourcePoint" />
            <mxPoint x="647.5" y="1265.6399999999999" as="targetPoint" />
          </mxGeometry>
        </mxCell>
        <mxCell id="7ReIxb1S-zB782AHkdoJ-323" value="" style="shape=trapezoid;perimeter=trapezoidPerimeter;whiteSpace=wrap;html=1;fixedSize=1;rotation=-90;fillColor=#FFFFFF;strokeWidth=1;" vertex="1" parent="1">
          <mxGeometry x="887.86" y="1623.22" width="353.12" height="28.44" as="geometry" />
        </mxCell>
        <mxCell id="7ReIxb1S-zB782AHkdoJ-324" value="" style="endArrow=block;html=1;rounded=1;endFill=1;strokeWidth=2;entryX=0.44;entryY=-0.018;entryDx=0;entryDy=0;entryPerimeter=0;endSize=1;curved=0;exitX=0.973;exitY=0.587;exitDx=0;exitDy=0;exitPerimeter=0;" edge="1" parent="1" source="7ReIxb1S-zB782AHkdoJ-201">
          <mxGeometry width="50" height="50" relative="1" as="geometry">
            <mxPoint x="780" y="1250" as="sourcePoint" />
            <mxPoint x="1049.68808" y="1669.6272000000004" as="targetPoint" />
            <Array as="points">
              <mxPoint x="780" y="1250" />
              <mxPoint x="780" y="1670" />
            </Array>
          </mxGeometry>
        </mxCell>
        <mxCell id="7ReIxb1S-zB782AHkdoJ-325" value="" style="endArrow=block;html=1;rounded=1;endFill=1;strokeWidth=2;entryX=0.471;entryY=-0.019;entryDx=0;entryDy=0;entryPerimeter=0;endSize=1;curved=0;" edge="1" parent="1">
          <mxGeometry width="50" height="50" relative="1" as="geometry">
            <mxPoint x="750" y="1240" as="sourcePoint" />
            <mxPoint x="1049.65964" y="1659.6804800000004" as="targetPoint" />
            <Array as="points">
              <mxPoint x="790" y="1240" />
              <mxPoint x="790" y="1660" />
            </Array>
          </mxGeometry>
        </mxCell>
        <mxCell id="7ReIxb1S-zB782AHkdoJ-326" value="" style="endArrow=block;html=1;rounded=1;endFill=1;strokeWidth=2;entryX=0.471;entryY=-0.019;entryDx=0;entryDy=0;entryPerimeter=0;endSize=1;curved=0;exitX=1.009;exitY=0.529;exitDx=0;exitDy=0;exitPerimeter=0;" edge="1" parent="1" source="7ReIxb1S-zB782AHkdoJ-202">
          <mxGeometry width="50" height="50" relative="1" as="geometry">
            <mxPoint x="800" y="1230" as="sourcePoint" />
            <mxPoint x="1049.65964" y="1649.4504800000004" as="targetPoint" />
            <Array as="points">
              <mxPoint x="800" y="1230" />
              <mxPoint x="800" y="1650" />
            </Array>
          </mxGeometry>
        </mxCell>
        <mxCell id="7ReIxb1S-zB782AHkdoJ-327" value="" style="endArrow=block;html=1;rounded=1;endFill=1;strokeWidth=2;entryX=0.471;entryY=-0.019;entryDx=0;entryDy=0;entryPerimeter=0;endSize=1;curved=0;exitX=1;exitY=0.5;exitDx=0;exitDy=0;" edge="1" parent="1" source="7ReIxb1S-zB782AHkdoJ-204">
          <mxGeometry width="50" height="50" relative="1" as="geometry">
            <mxPoint x="810" y="1220" as="sourcePoint" />
            <mxPoint x="1049.51964" y="1639.2204800000004" as="targetPoint" />
            <Array as="points">
              <mxPoint x="810" y="1220" />
              <mxPoint x="810" y="1640" />
            </Array>
          </mxGeometry>
        </mxCell>
        <mxCell id="7ReIxb1S-zB782AHkdoJ-328" value="" style="endArrow=block;html=1;rounded=1;endFill=1;strokeWidth=2;entryX=0.578;entryY=-0.018;entryDx=0;entryDy=0;entryPerimeter=0;endSize=1;curved=0;" edge="1" parent="1">
          <mxGeometry width="50" height="50" relative="1" as="geometry">
            <mxPoint x="760" y="1210" as="sourcePoint" />
            <mxPoint x="1049.68808" y="1628.8966400000004" as="targetPoint" />
            <Array as="points">
              <mxPoint x="820" y="1210" />
              <mxPoint x="820" y="1629" />
            </Array>
          </mxGeometry>
        </mxCell>
        <mxCell id="7ReIxb1S-zB782AHkdoJ-329" value="" style="endArrow=block;html=1;rounded=1;endFill=1;strokeWidth=2;entryX=0.61;entryY=-0.016;entryDx=0;entryDy=0;entryPerimeter=0;endSize=1;curved=0;exitX=0.978;exitY=0.466;exitDx=0;exitDy=0;exitPerimeter=0;" edge="1" parent="1" source="7ReIxb1S-zB782AHkdoJ-206">
          <mxGeometry width="50" height="50" relative="1" as="geometry">
            <mxPoint x="830" y="1199" as="sourcePoint" />
            <mxPoint x="1049.74496" y="1619.5968000000003" as="targetPoint" />
            <Array as="points">
              <mxPoint x="830" y="1200" />
              <mxPoint x="830" y="1620" />
            </Array>
          </mxGeometry>
        </mxCell>
        <mxCell id="7ReIxb1S-zB782AHkdoJ-330" value="" style="endArrow=block;html=1;rounded=1;endFill=1;strokeWidth=2;entryX=0.648;entryY=-0.017;entryDx=0;entryDy=0;entryPerimeter=0;endSize=1;curved=0;exitX=1.004;exitY=0.43;exitDx=0;exitDy=0;exitPerimeter=0;" edge="1" parent="1" source="7ReIxb1S-zB782AHkdoJ-206">
          <mxGeometry width="50" height="50" relative="1" as="geometry">
            <mxPoint x="840" y="1190" as="sourcePoint" />
            <mxPoint x="1049.71652" y="1610.1782400000002" as="targetPoint" />
            <Array as="points">
              <mxPoint x="840" y="1190" />
              <mxPoint x="840" y="1610" />
            </Array>
          </mxGeometry>
        </mxCell>
        <mxCell id="7ReIxb1S-zB782AHkdoJ-331" value="" style="endArrow=block;html=1;rounded=1;endFill=1;strokeWidth=2;entryX=0.684;entryY=-0.017;entryDx=0;entryDy=0;entryPerimeter=0;endSize=1;curved=0;exitX=1.004;exitY=0.411;exitDx=0;exitDy=0;exitPerimeter=0;" edge="1" parent="1" source="7ReIxb1S-zB782AHkdoJ-207">
          <mxGeometry width="50" height="50" relative="1" as="geometry">
            <mxPoint x="850" y="1178.2857142857142" as="sourcePoint" />
            <mxPoint x="1049.71652" y="1600.46592" as="targetPoint" />
            <Array as="points">
              <mxPoint x="850" y="1181" />
              <mxPoint x="850" y="1600" />
            </Array>
          </mxGeometry>
        </mxCell>
      </root>
    </mxGraphModel>
  </diagram>
</mxfile>
